<svg width="218" height="110" viewBox="0 0 218 110" fill="none" xmlns="http://www.w3.org/2000/svg">
<path d="M27.2166 54.9903C23.3231 55.0495 19.4494 54.4262 15.7711 53.1487C12.5385 52.0134 9.59896 50.1733 7.16546 47.7615C4.77945 45.3142 2.95316 42.378 1.81276 39.1559C0.545781 35.4282 -0.065659 31.5092 0.0055792 27.5727C-0.0554909 23.6353 0.609646 19.7203 1.96766 16.024C3.19465 12.7922 5.0956 9.85861 7.54411 7.41834C10.0236 4.99799 12.9934 3.13751 16.253 1.96238C19.9205 0.662089 23.7906 0.0267851 27.6813 0.0863516C30.7866 0.0781048 33.8824 0.430434 36.9065 1.13625C39.7879 1.80462 42.531 2.96942 45.013 4.5785C47.44 6.15039 49.5098 8.21437 51.0886 10.6369C52.423 12.7424 53.3566 15.0764 53.8424 17.5214C53.9158 17.7825 53.9265 18.0572 53.8735 18.3232C53.8206 18.5892 53.7056 18.8389 53.5378 19.052C53.37 19.2651 53.1542 19.4355 52.908 19.5494C52.6619 19.6632 52.3923 19.7173 52.1213 19.7072H43.5156C43.1904 19.7 42.874 19.6008 42.6029 19.421C42.3317 19.2413 42.1171 18.9884 41.9838 18.6917C41.5836 17.6074 40.9556 16.6214 40.1422 15.8002C39.0383 14.7358 37.7644 13.8632 36.373 13.2185C34.9503 12.5331 33.4468 12.03 31.898 11.7212C30.4308 11.4213 28.9378 11.2656 27.4403 11.2565C22.2769 11.2565 18.3184 12.6678 15.7195 15.5248C12.9455 18.9033 11.5609 23.2107 11.8469 27.5727C11.588 31.9085 12.9913 36.1799 15.7711 39.5173C18.37 42.4088 22.2769 43.8374 27.4403 43.8374C28.9621 43.8229 30.4785 43.6557 31.9669 43.3382C33.5562 42.9672 35.0897 42.3886 36.5279 41.6171C37.9323 40.9355 39.2309 40.0543 40.3832 39.001C41.2193 38.2245 41.882 37.2803 42.3281 36.23C42.4613 35.9333 42.676 35.6804 42.9471 35.5007C43.2182 35.321 43.5347 35.2217 43.8599 35.2145H52.1901C52.4689 35.2007 52.747 35.2548 53.0002 35.3724C53.2534 35.4899 53.4743 35.6673 53.6437 35.8892C53.8131 36.1111 53.9259 36.3709 53.9726 36.6462C54.0192 36.9214 53.9981 37.2039 53.9112 37.4692C53.3454 39.8715 52.3608 42.1553 51.0025 44.216C49.3616 46.6788 47.2357 48.7813 44.7548 50.3949C42.2355 52.0038 39.4585 53.1681 36.5451 53.8371C33.4939 54.5985 30.3613 54.9857 27.2166 54.9903Z" fill="#0B0033"/>
<path d="M79.1778 54.9897C76.1925 55.0465 73.219 54.5985 70.3829 53.6645C67.9059 52.8512 65.6459 51.4858 63.7738 49.6715C61.9186 47.8097 60.4914 45.5661 59.5914 43.0968C58.5669 40.2383 58.0712 37.2173 58.1285 34.1813C58.1285 27.0559 59.9242 21.7777 63.5156 18.347C67.1128 14.9047 72.1212 13.1836 78.782 13.1836C85.4427 13.1836 90.6233 14.9047 94.3926 18.5191C98.1619 22.1334 100.038 27.314 100.038 34.233V35.5238C100.038 35.9803 99.8565 36.418 99.5338 36.7408C99.211 37.0636 98.7732 37.2449 98.3168 37.2449H70.7787C70.4954 37.2435 70.2161 37.3121 69.9656 37.4445C69.7151 37.577 69.5012 37.7692 69.3428 38.0042C69.1845 38.2391 69.0866 38.5096 69.0579 38.7915C69.0291 39.0734 69.0704 39.358 69.1781 39.6201C69.3131 39.9841 69.4801 40.3355 69.6772 40.67C70.2773 41.6372 71.0895 42.4553 72.0524 43.0623C73.0778 43.71 74.1988 44.1921 75.3742 44.4909C76.6135 44.8375 77.8913 45.0283 79.1778 45.0588C81.3551 45.1459 83.523 44.7277 85.5116 43.8368C86.6057 43.3459 87.5157 42.5202 88.1105 41.4789C88.2548 41.2148 88.4659 40.9932 88.7225 40.8362C88.9792 40.6792 89.2726 40.5922 89.5734 40.5839H97.2497C97.5325 40.5679 97.815 40.6219 98.0719 40.7412C98.3289 40.8606 98.5524 41.0415 98.7227 41.268C98.893 41.4944 99.0047 41.7594 99.048 42.0394C99.0912 42.3194 99.0647 42.6057 98.9708 42.873C98.0673 46.4207 95.901 49.517 92.878 51.5819C88.7363 54.0174 83.9779 55.201 79.1778 54.9897ZM70.9853 30.0334L86.7336 30.2227C87.0562 30.2376 87.3765 30.1615 87.6578 30.0029C87.9392 29.8444 88.1703 29.6099 88.3247 29.3263C88.4791 29.0426 88.5506 28.7212 88.5309 28.3989C88.5113 28.0765 88.4014 27.7662 88.2137 27.5034L87.9556 27.1075C87.3217 26.2071 86.4995 25.4553 85.546 24.9045C84.5308 24.3051 83.4355 23.8531 82.2931 23.562C81.1991 23.2626 80.071 23.1064 78.9369 23.0973C77.7422 23.1 76.552 23.2445 75.3914 23.5275C74.2588 23.7914 73.1694 24.2144 72.1556 24.784C71.2303 25.3105 70.4314 26.033 69.8149 26.901C69.6664 27.1265 69.5341 27.3623 69.4191 27.6066C69.3039 27.8619 69.2527 28.1415 69.27 28.421C69.2873 28.7006 69.3726 28.9717 69.5185 29.2108C69.6643 29.4499 69.8663 29.6498 70.1069 29.7932C70.3475 29.9365 70.6195 30.019 70.8992 30.0334H70.9853Z" fill="#0B0033"/>
<path d="M105.511 1.74371e-07H113.944C114.401 1.7437e-07 114.839 0.181331 115.161 0.504105C115.484 0.826879 115.666 1.26465 115.666 1.72113V53.2172C115.666 53.6737 115.484 54.1114 115.161 54.4342C114.839 54.757 114.401 54.9383 113.944 54.9383H105.511C105.054 54.9383 104.617 54.757 104.294 54.4342C103.971 54.1114 103.79 53.6737 103.79 53.2172V1.77276C103.783 1.54243 103.822 1.31306 103.906 1.09825C103.989 0.883437 104.115 0.687556 104.275 0.522226C104.436 0.356895 104.628 0.225475 104.84 0.13577C105.052 0.0460641 105.281 -0.000103544 105.511 1.74371e-07Z" fill="#0B0033"/>
<path d="M121.12 1.74371e-07H129.537C129.993 1.7437e-07 130.431 0.181331 130.754 0.504105C131.076 0.826879 131.258 1.26465 131.258 1.72113V53.2172C131.258 53.6737 131.076 54.1114 130.754 54.4342C130.431 54.757 129.993 54.9383 129.537 54.9383H121.12C120.664 54.9383 120.226 54.757 119.903 54.4342C119.581 54.1114 119.399 53.6737 119.399 53.2172V1.77276C119.392 1.54243 119.432 1.31306 119.515 1.09825C119.598 0.883437 119.724 0.687556 119.885 0.522226C120.045 0.356895 120.237 0.225475 120.45 0.13577C120.662 0.0460641 120.89 -0.000103544 121.12 1.74371e-07Z" fill="#0B0033"/>
<path d="M217.754 109.258C217.756 109.309 217.748 109.359 217.73 109.406C217.712 109.453 217.684 109.496 217.649 109.532C217.613 109.567 217.57 109.595 217.523 109.613C217.476 109.631 217.426 109.64 217.375 109.637H206.515C206.467 109.639 206.42 109.631 206.375 109.613C206.331 109.595 206.29 109.568 206.257 109.534C206.216 109.501 206.184 109.459 206.163 109.411C206.142 109.363 206.133 109.311 206.136 109.258V108.398C206.134 108.348 206.144 108.299 206.165 108.254C206.186 108.209 206.218 108.17 206.257 108.14C206.29 108.106 206.331 108.079 206.375 108.061C206.42 108.043 206.467 108.035 206.515 108.036H216.308V102.598C216.305 102.546 216.314 102.493 216.335 102.445C216.356 102.397 216.388 102.355 216.429 102.322C216.467 102.285 216.514 102.257 216.564 102.239C216.614 102.222 216.668 102.215 216.721 102.219H217.375C217.426 102.217 217.476 102.225 217.523 102.243C217.57 102.261 217.613 102.289 217.649 102.325C217.684 102.36 217.712 102.403 217.73 102.45C217.748 102.497 217.756 102.547 217.754 102.598V109.258Z" fill="#0B0033"/>
<path d="M217.754 101.291C217.755 101.378 217.724 101.464 217.668 101.531C217.591 101.562 217.505 101.562 217.427 101.531H217.238L206.498 97.4696C206.4 97.4326 206.312 97.3738 206.24 97.2975C206.166 97.1988 206.129 97.0767 206.137 96.9533V95.8346C206.132 95.7168 206.168 95.6009 206.24 95.5075C206.311 95.4259 206.399 95.3612 206.498 95.3182L217.238 91.2908C217.3 91.2755 217.365 91.2755 217.427 91.2908C217.472 91.2852 217.517 91.2898 217.559 91.3042C217.601 91.3187 217.639 91.3426 217.671 91.3742C217.703 91.4057 217.726 91.4441 217.741 91.4863C217.755 91.5285 217.76 91.5735 217.754 91.6178V92.4439C217.731 92.5391 217.676 92.6237 217.6 92.6849L217.41 92.8054L215.052 93.7003V99.053L217.41 99.948C217.482 99.9727 217.547 100.014 217.6 100.069C217.662 100.153 217.692 100.257 217.686 100.361L217.754 101.291ZM213.693 98.6916V94.1823L207.806 96.4025L213.693 98.6916Z" fill="#0B0033"/>
<path d="M217.754 89.1229C217.759 89.1736 217.752 89.2246 217.734 89.2722C217.716 89.3198 217.688 89.3629 217.651 89.3983C217.615 89.4338 217.572 89.4614 217.524 89.4792C217.477 89.497 217.426 89.5046 217.376 89.5016H206.533C206.482 89.5046 206.432 89.497 206.384 89.4792C206.337 89.4614 206.293 89.4338 206.257 89.3983C206.216 89.3664 206.183 89.3244 206.161 89.2762C206.14 89.228 206.132 89.1753 206.137 89.1229V84.648C206.111 83.9588 206.252 83.2736 206.55 82.6515C206.79 82.1675 207.175 81.7705 207.651 81.5155C208.132 81.2556 208.672 81.1252 209.218 81.1369C209.619 81.1328 210.017 81.2088 210.388 81.3606C210.685 81.491 210.954 81.6781 211.18 81.9114C211.364 82.1009 211.52 82.3152 211.644 82.5482C211.892 82.0918 212.246 81.7021 212.677 81.4123C213.186 81.0731 213.787 80.8988 214.398 80.9131C214.998 80.8985 215.592 81.0408 216.119 81.3262C216.635 81.6086 217.059 82.0326 217.341 82.5482C217.656 83.1656 217.81 83.8522 217.789 84.5447L217.754 89.1229ZM211.059 87.9009V84.9062C211.102 84.3339 210.923 83.767 210.56 83.3227C210.392 83.141 210.186 82.9977 209.958 82.9026C209.729 82.8075 209.482 82.763 209.235 82.7719C208.99 82.7655 208.747 82.8113 208.521 82.9062C208.296 83.0012 208.093 83.1432 207.927 83.3227C207.597 83.7817 207.438 84.3422 207.479 84.9062V87.9009H211.059ZM216.412 87.9009V84.7512C216.445 84.4391 216.41 84.1236 216.308 83.8264C216.207 83.5292 216.043 83.2576 215.827 83.0301C215.438 82.6647 214.924 82.4613 214.39 82.4613C213.856 82.4613 213.342 82.6647 212.953 83.0301C212.742 83.2609 212.583 83.5335 212.485 83.8301C212.387 84.1267 212.353 84.4405 212.385 84.7512V87.9009H216.412Z" fill="#0B0033"/>
<path d="M217.754 74.9225C217.782 75.7358 217.636 76.5457 217.324 77.2976C217.084 77.8883 216.685 78.4007 216.171 78.7778C215.741 79.1118 215.218 79.3042 214.674 79.3285C214.583 79.3272 214.496 79.2901 214.433 79.2253C214.398 79.1918 214.372 79.1515 214.354 79.1071C214.336 79.0626 214.328 79.0149 214.329 78.9671V78.141C214.323 78.0364 214.353 77.9328 214.415 77.8484C214.481 77.7806 214.565 77.7329 214.656 77.7107C214.948 77.6425 215.219 77.5069 215.448 77.3148C215.727 77.0699 215.945 76.7635 216.085 76.4198C216.272 75.9434 216.36 75.4339 216.343 74.9225C216.399 74.1986 216.224 73.4757 215.844 72.8571C215.689 72.6427 215.485 72.4693 215.248 72.3523C215.011 72.2353 214.748 72.1782 214.484 72.1859C214.313 72.1795 214.142 72.2083 213.982 72.2704C213.822 72.3326 213.677 72.4268 213.555 72.5473C213.268 72.853 213.051 73.217 212.918 73.6144C212.723 74.0963 212.516 74.7159 212.298 75.4732C212.116 76.1575 211.862 76.8209 211.541 77.4525C211.306 77.9266 210.95 78.3303 210.508 78.6229C210.026 78.8992 209.481 79.0445 208.925 79.0445C208.369 79.0445 207.824 78.8992 207.342 78.6229C206.851 78.2738 206.464 77.7979 206.223 77.246C205.929 76.5678 205.788 75.8333 205.81 75.0946C205.8 74.5091 205.893 73.9266 206.085 73.3734C206.241 72.9061 206.487 72.4735 206.808 72.0998C207.089 71.7923 207.421 71.536 207.789 71.3425C208.101 71.1688 208.448 71.0688 208.805 71.0499C208.891 71.0555 208.975 71.0853 209.046 71.136C209.082 71.168 209.11 71.208 209.128 71.2528C209.146 71.2977 209.153 71.346 209.149 71.3941V72.2719C209.164 72.3458 209.164 72.4218 209.149 72.4957C209.123 72.5417 209.089 72.5821 209.047 72.6146C209.006 72.6471 208.959 72.671 208.908 72.685C208.674 72.7249 208.45 72.8127 208.252 72.943C208.054 73.0734 207.884 73.2433 207.755 73.4423C207.42 73.9517 207.257 74.5548 207.29 75.1634C207.264 75.7645 207.407 76.3607 207.703 76.8845C207.84 77.0986 208.033 77.2721 208.259 77.3871C208.486 77.5021 208.74 77.5544 208.994 77.5386C209.336 77.5492 209.671 77.4396 209.94 77.2288C210.23 76.9554 210.453 76.62 210.595 76.2477C210.784 75.8002 210.973 75.215 211.197 74.5266C211.392 73.7906 211.646 73.0713 211.954 72.3752C212.179 71.8852 212.529 71.4635 212.97 71.1532C213.433 70.864 213.973 70.7201 214.519 70.7401C215.136 70.7387 215.738 70.9313 216.24 71.2909C216.758 71.6742 217.153 72.2006 217.376 72.8055C217.626 73.4833 217.754 74.2 217.754 74.9225Z" fill="#0B0033"/>
<path d="M22.1491 88.6749C22.0958 85.679 22.6339 82.7021 23.7325 79.9144C24.7179 77.4692 26.2177 75.2646 28.1302 73.4502C30.0427 71.6357 32.323 70.2538 34.8166 69.3983C37.5334 68.4569 40.3922 67.9911 43.2673 68.0214C45.8517 68.0284 48.4269 68.3287 50.9435 68.9164C53.4534 69.4821 55.8504 70.4654 58.0346 71.8251C60.1263 73.1307 61.8923 74.8967 63.198 76.9885C64.2507 78.698 64.9092 80.6206 65.1256 82.6166C65.1715 82.867 65.1612 83.1246 65.0955 83.3706C65.0298 83.6167 64.9103 83.8451 64.7457 84.0393C64.581 84.2336 64.3753 84.3889 64.1434 84.4941C63.9115 84.5993 63.6591 84.6517 63.4045 84.6475H54.5579C54.227 84.6358 53.9065 84.5289 53.6348 84.3397C53.3631 84.1504 53.1517 83.8868 53.0261 83.5804C52.7723 82.9924 52.4298 82.4467 52.0106 81.9625C51.3483 81.2354 50.5687 80.6245 49.7043 80.1553C48.8053 79.6822 47.8432 79.3402 46.8473 79.1399C45.8303 78.9628 44.7983 78.8879 43.7664 78.9161C42.103 78.8659 40.4449 79.1286 38.8785 79.6906C37.6818 80.1451 36.6171 80.8904 35.7804 81.8593C35.0212 82.7808 34.4694 83.855 34.1626 85.0089C33.8274 86.2196 33.6594 87.4704 33.6634 88.7265C33.6577 89.9976 33.8139 91.2642 34.1281 92.4958C34.3971 93.657 34.94 94.737 35.7116 95.6455C36.5426 96.6135 37.593 97.3689 38.7752 97.8485C40.3216 98.4453 41.972 98.7262 43.6288 98.6747C44.6582 98.6672 45.6845 98.5576 46.6924 98.3476C47.704 98.1445 48.6828 97.8028 49.6011 97.3322C50.4859 96.871 51.2837 96.2595 51.959 95.525C52.3997 95.0633 52.7552 94.5272 53.0089 93.9416C53.1422 93.6449 53.3568 93.392 53.6279 93.2123C53.899 93.0325 54.2155 92.9333 54.5407 92.9261H63.4389C63.6901 92.9229 63.9389 92.9746 64.168 93.0778C64.397 93.181 64.6007 93.333 64.7647 93.5233C64.9287 93.7135 65.0491 93.9374 65.1174 94.1791C65.1857 94.4209 65.2003 94.6746 65.16 94.9226C64.9448 96.9907 64.2557 98.9814 63.1463 100.74C61.8337 102.826 60.0691 104.591 57.9829 105.903C55.8629 107.228 53.5358 108.188 51.0984 108.743C48.6998 109.301 46.2464 109.59 43.7837 109.604C40.8041 109.638 37.839 109.185 35.0059 108.261C32.4868 107.446 30.1736 106.095 28.2247 104.303C26.2995 102.481 24.8059 100.253 23.853 97.7797C22.7049 94.8825 22.1264 91.7912 22.1491 88.6749Z" fill="#0B0033"/>
<path d="M111.182 109.5C109.335 109.504 107.496 109.237 105.726 108.709C103.999 108.235 102.363 107.473 100.89 106.454C99.4717 105.439 98.2961 104.122 97.4475 102.599C96.543 100.956 96.086 99.1039 96.1222 97.2287C96.0748 95.3661 96.5712 93.5299 97.5508 91.9449C98.5017 90.4858 99.7658 89.257 101.251 88.3477C102.806 87.3837 104.493 86.653 106.26 86.1791C107.997 85.7003 109.779 85.4004 111.578 85.2841L127.257 84.4064V83.7007C127.31 82.5422 127.023 81.3937 126.431 80.3961C125.863 79.5458 125.095 78.8483 124.194 78.3652C123.2 77.8186 122.115 77.457 120.993 77.2981C119.75 77.117 118.496 77.025 117.24 77.0227C114.757 76.8674 112.285 77.4675 110.149 78.7439C108.97 79.4716 108.095 80.6032 107.688 81.9279C107.608 82.3225 107.391 82.6764 107.077 82.928C106.762 83.1796 106.37 83.313 105.967 83.3048H98.8416C98.5921 83.3077 98.345 83.2562 98.1174 83.1541C97.8898 83.0519 97.6871 82.9015 97.5234 82.7132C97.3597 82.5249 97.2388 82.3033 97.1693 82.0637C97.0997 81.8241 97.0831 81.5722 97.1205 81.3255C97.1894 79.4131 97.7008 77.5428 98.6147 75.8614C99.5285 74.1801 100.82 72.7336 102.387 71.6356C105.95 69.1916 110.993 67.9868 117.24 67.9868C124.263 67.9868 129.547 69.4326 133.058 72.3413C136.569 75.25 138.341 79.8454 138.341 86.1103V106.626C138.341 107.083 138.16 107.52 137.837 107.843C137.515 108.166 137.077 108.347 136.62 108.347H129.099C128.643 108.347 128.205 108.166 127.882 107.843C127.559 107.52 127.378 107.083 127.378 106.626V94.4061C127.415 96.3217 127.106 98.2282 126.466 100.034C125.936 101.513 125.143 102.883 124.125 104.079C123.209 105.149 122.128 106.067 120.924 106.798C119.796 107.499 118.596 108.076 117.344 108.519C115.349 109.181 113.266 109.541 111.165 109.586L111.182 109.5ZM115.399 101.17C116.552 101.067 117.826 100.912 119.203 100.705C120.541 100.508 121.849 100.138 123.092 99.6039C124.246 99.1125 125.288 98.3924 126.156 97.4869C127.005 96.547 127.451 95.3104 127.395 94.0447V92.0654L116.982 92.6161L114.504 92.8054C113.447 92.8907 112.4 93.0635 111.371 93.3218C110.428 93.543 109.535 93.94 108.738 94.4922C108.386 94.7385 108.1 95.0691 107.908 95.4538C107.715 95.8386 107.622 96.2653 107.637 96.6952C107.621 97.4978 107.917 98.2753 108.463 98.8638C109.023 99.468 109.703 99.9487 110.459 100.275C111.273 100.614 112.121 100.862 112.989 101.015C113.783 101.163 114.592 101.215 115.399 101.17Z" fill="#0B0033"/>
<path d="M157.773 65.1468C156.214 65.1046 154.656 65.2784 153.144 65.6632C152.628 65.7774 152.17 66.0731 151.854 66.4965C151.538 66.9198 151.385 67.4426 151.422 67.9695C151.402 68.2321 151.439 68.496 151.531 68.7428C151.623 68.9895 151.768 69.2132 151.956 69.398C152.365 69.74 152.858 69.9658 153.385 70.052C154.063 70.1985 154.756 70.2678 155.45 70.2586H165.019C165.476 70.2586 165.914 70.4399 166.236 70.7627C166.559 71.0854 166.74 71.5232 166.74 71.9797V78.3307C166.74 78.7871 166.559 79.2249 166.236 79.5477C165.914 79.8704 165.476 80.0518 165.019 80.0518H161.405C160.949 80.0518 160.511 80.2331 160.188 80.5559C159.865 80.8787 159.684 81.3164 159.684 81.7729V107.59C159.684 108.046 159.503 108.484 159.18 108.807C158.857 109.13 158.419 109.311 157.963 109.311H149.977C149.52 109.311 149.082 109.13 148.76 108.807C148.437 108.484 148.256 108.046 148.256 107.59V81.7729C148.256 81.3164 148.074 80.8787 147.751 80.5559C147.429 80.2331 146.991 80.0518 146.534 80.0518H143.092C142.636 80.0518 142.198 79.8704 141.875 79.5477C141.552 79.2249 141.371 78.7871 141.371 78.3307V72.0313C141.371 71.5749 141.552 71.1371 141.875 70.8143C142.198 70.4915 142.636 70.3102 143.092 70.3102H149.977C147.738 70.4236 145.529 69.7543 143.729 68.417C142.928 67.7179 142.3 66.8429 141.894 65.8605C141.488 64.8781 141.315 63.815 141.388 62.7545C141.348 61.629 141.568 60.5094 142.031 59.4827C142.494 58.4559 143.187 57.5495 144.056 56.8338C145.846 55.3307 148.927 54.5848 153.298 54.5963H165.019C165.476 54.5963 165.914 54.7777 166.236 55.1004C166.559 55.4232 166.74 55.861 166.74 56.3175V63.4257C166.74 63.8822 166.559 64.3199 166.236 64.6427C165.914 64.9655 165.476 65.1468 165.019 65.1468H157.773Z" fill="#0B0033"/>
<path d="M199.029 70.3102H198.667C192.333 70.3102 189.821 70.3102 189.821 63.7527V56.9026C189.827 56.5952 189.774 56.2895 189.662 56.0028C189.551 55.7162 189.384 55.4544 189.172 55.2322C188.959 55.01 188.705 54.8319 188.423 54.708C188.142 54.5842 187.839 54.517 187.531 54.5103H180.647C180.34 54.517 180.036 54.5842 179.755 54.708C179.474 54.8319 179.219 55.01 179.007 55.2322C178.794 55.4544 178.627 55.7162 178.516 56.0028C178.405 56.2895 178.351 56.5952 178.358 56.9026V64.2862C178.325 64.8369 178.496 65.3805 178.839 65.8125C179.182 66.2446 179.673 66.5346 180.217 66.627C182.781 67.0907 185.121 68.3849 186.877 70.3102H172.127C171.671 70.3102 171.233 70.4915 170.91 70.8143C170.588 71.1371 170.406 71.5748 170.406 72.0313V78.3823C170.406 78.8387 170.588 79.2765 170.91 79.5993C171.233 79.9221 171.671 80.1034 172.127 80.1034H176.723C177.179 80.1034 177.617 80.2847 177.94 80.6075C178.263 80.9303 178.444 81.368 178.444 81.8245V96.6262C178.262 99.9574 179.214 103.252 181.146 105.972C182.112 107.139 183.341 108.06 184.732 108.659C186.124 109.257 187.638 109.516 189.149 109.414H199.046C199.502 109.414 199.94 109.233 200.263 108.91C200.586 108.587 200.767 108.15 200.767 107.693V100.12C200.767 99.6636 200.586 99.2258 200.263 98.9031C199.94 98.5803 199.502 98.399 199.046 98.399H193.28C190.974 98.399 189.838 96.8844 189.838 93.838V81.8934C189.838 81.4369 190.019 80.9991 190.342 80.6763C190.665 80.3536 191.102 80.1722 191.559 80.1722H199.08C199.537 80.1722 199.974 79.9909 200.297 79.6681C200.62 79.3453 200.801 78.9076 200.801 78.4511V72.0313C200.801 71.8009 200.755 71.5728 200.666 71.3605C200.576 71.1483 200.444 70.9562 200.279 70.7957C200.114 70.6352 199.918 70.5095 199.703 70.4261C199.488 70.3427 199.259 70.3033 199.029 70.3102Z" fill="#0B0033"/>
<path d="M92.6811 69.2776H85.5901C85.043 69.2692 84.5121 69.463 84.0992 69.8219C83.6863 70.1808 83.4204 70.6796 83.3526 71.2225C83.0155 73.4896 82.063 75.6208 80.5988 77.3841V72.0314C80.5988 71.5749 80.4175 71.1372 80.0947 70.8144C79.7719 70.4916 79.3342 70.3103 78.8777 70.3103H70.7368C70.2803 70.3103 69.8425 70.4916 69.5197 70.8144C69.197 71.1372 69.0156 71.5749 69.0156 72.0314V107.728C69.0156 108.184 69.197 108.622 69.5197 108.945C69.8425 109.267 70.2803 109.449 70.7368 109.449H78.9465C79.403 109.449 79.8408 109.267 80.1635 108.945C80.4863 108.622 80.6677 108.184 80.6677 107.728V90.1032V84.6989C81.4077 82.5475 82.974 81.2566 86.2613 81.2566H92.7672C93.3623 81.2175 93.9206 80.9542 94.3293 80.5198C94.7381 80.0855 94.9671 79.5124 94.9702 78.9159V71.67C94.9771 71.3626 94.9233 71.0568 94.8119 70.7702C94.7006 70.4836 94.5339 70.2217 94.3213 69.9995C94.1087 69.7774 93.8545 69.5993 93.573 69.4754C93.2916 69.3515 92.9885 69.2843 92.6811 69.2776Z" fill="#0B0033"/>
</svg>
