<svg width="353" height="175" viewBox="0 0 353 175" fill="none" xmlns="http://www.w3.org/2000/svg">
<path d="M352 174.599C352.002 174.652 351.994 174.705 351.974 174.755C351.955 174.805 351.926 174.851 351.888 174.888C351.85 174.926 351.804 174.956 351.754 174.975C351.704 174.994 351.65 175.003 351.597 175H340.034C339.983 175.002 339.932 174.993 339.885 174.974C339.837 174.956 339.795 174.927 339.759 174.891C339.716 174.856 339.681 174.811 339.659 174.76C339.637 174.709 339.627 174.654 339.631 174.599V173.686C339.628 173.633 339.639 173.581 339.661 173.533C339.684 173.486 339.717 173.444 339.759 173.412C339.795 173.376 339.837 173.347 339.885 173.328C339.932 173.309 339.983 173.301 340.034 173.302H350.461V167.533C350.457 167.478 350.467 167.422 350.489 167.371C350.511 167.32 350.546 167.276 350.589 167.241C350.63 167.202 350.679 167.172 350.733 167.153C350.787 167.134 350.844 167.127 350.9 167.131H351.597C351.65 167.129 351.704 167.137 351.754 167.157C351.804 167.176 351.85 167.205 351.888 167.243C351.926 167.281 351.955 167.326 351.974 167.376C351.994 167.426 352.002 167.479 352 167.533V174.599Z" fill="#0B0033"/>
<path d="M352 166.145C352 166.239 351.968 166.329 351.909 166.401C351.826 166.433 351.734 166.433 351.652 166.401H351.45L340.016 162.092C339.911 162.053 339.817 161.99 339.741 161.91C339.662 161.805 339.623 161.675 339.631 161.544V160.358C339.625 160.233 339.664 160.11 339.741 160.011C339.816 159.924 339.91 159.856 340.016 159.81L351.45 155.538C351.517 155.521 351.586 155.521 351.652 155.538C351.699 155.532 351.747 155.537 351.792 155.552C351.837 155.567 351.878 155.593 351.911 155.626C351.945 155.66 351.971 155.7 351.986 155.745C352.001 155.79 352.006 155.837 352 155.884V156.761C351.975 156.862 351.917 156.952 351.835 157.016L351.634 157.144L349.123 158.094V163.772L351.634 164.721C351.71 164.747 351.779 164.791 351.835 164.849C351.901 164.939 351.934 165.048 351.927 165.159L352 166.145ZM347.676 163.388V158.605L341.409 160.96L347.676 163.388Z" fill="#0B0033"/>
<path d="M351.999 153.237C352.004 153.291 351.996 153.345 351.977 153.395C351.958 153.446 351.928 153.491 351.89 153.529C351.851 153.567 351.805 153.596 351.755 153.615C351.704 153.634 351.65 153.642 351.596 153.639H340.052C339.998 153.642 339.944 153.634 339.893 153.615C339.843 153.596 339.797 153.567 339.759 153.529C339.714 153.495 339.679 153.451 339.656 153.399C339.634 153.348 339.625 153.292 339.63 153.237V148.49C339.602 147.759 339.753 147.032 340.07 146.372C340.326 145.859 340.736 145.437 341.243 145.167C341.754 144.891 342.329 144.753 342.91 144.765C343.337 144.761 343.761 144.842 344.156 145.003C344.473 145.141 344.759 145.339 344.999 145.587C345.195 145.788 345.362 146.015 345.494 146.262C345.758 145.778 346.135 145.365 346.594 145.057C347.135 144.698 347.775 144.513 348.426 144.528C349.065 144.512 349.697 144.663 350.259 144.966C350.808 145.266 351.259 145.716 351.56 146.262C351.894 146.917 352.058 147.646 352.036 148.38L351.999 153.237ZM344.871 151.941V148.764C344.917 148.157 344.727 147.555 344.34 147.084C344.161 146.891 343.942 146.739 343.698 146.638C343.455 146.538 343.192 146.49 342.929 146.5C342.668 146.493 342.409 146.541 342.169 146.642C341.929 146.743 341.713 146.894 341.536 147.084C341.184 147.571 341.016 148.165 341.06 148.764V151.941H344.871ZM350.57 151.941V148.599C350.605 148.268 350.567 147.934 350.46 147.618C350.352 147.303 350.177 147.015 349.947 146.774C349.533 146.386 348.985 146.17 348.417 146.17C347.848 146.17 347.301 146.386 346.887 146.774C346.663 147.018 346.493 147.308 346.389 147.622C346.285 147.937 346.248 148.27 346.282 148.599V151.941H350.57Z" fill="#0B0033"/>
<path d="M351.999 138.174C352.029 139.037 351.872 139.896 351.541 140.694C351.285 141.321 350.86 141.864 350.313 142.264C349.855 142.618 349.298 142.823 348.719 142.848C348.622 142.847 348.53 142.808 348.462 142.739C348.426 142.703 348.397 142.661 348.378 142.613C348.359 142.566 348.351 142.516 348.352 142.465V141.589C348.345 141.478 348.378 141.368 348.444 141.278C348.514 141.206 348.603 141.156 348.701 141.132C349.011 141.06 349.299 140.916 349.543 140.712C349.84 140.452 350.072 140.127 350.221 139.763C350.42 139.257 350.514 138.717 350.496 138.174C350.556 137.407 350.37 136.64 349.965 135.983C349.8 135.756 349.582 135.572 349.33 135.448C349.078 135.324 348.799 135.263 348.517 135.271C348.335 135.265 348.153 135.295 347.983 135.361C347.813 135.427 347.658 135.527 347.528 135.655C347.223 135.979 346.991 136.365 346.85 136.787C346.642 137.298 346.422 137.955 346.19 138.759C345.995 139.485 345.725 140.188 345.384 140.858C345.133 141.361 344.754 141.789 344.284 142.1C343.771 142.393 343.19 142.547 342.598 142.547C342.007 142.547 341.426 142.393 340.912 142.1C340.39 141.73 339.978 141.225 339.721 140.639C339.409 139.92 339.259 139.141 339.282 138.357C339.271 137.736 339.37 137.118 339.575 136.531C339.741 136.035 340.002 135.577 340.344 135.18C340.643 134.854 340.997 134.582 341.389 134.377C341.721 134.193 342.091 134.086 342.47 134.066C342.563 134.072 342.651 134.104 342.727 134.158C342.765 134.192 342.795 134.234 342.814 134.282C342.833 134.329 342.841 134.381 342.837 134.432V135.363C342.852 135.441 342.852 135.522 342.837 135.6C342.809 135.649 342.773 135.692 342.729 135.726C342.685 135.761 342.634 135.786 342.58 135.801C342.331 135.843 342.093 135.936 341.882 136.075C341.671 136.213 341.49 136.393 341.352 136.604C340.996 137.145 340.823 137.784 340.858 138.43C340.83 139.068 340.982 139.7 341.297 140.256C341.444 140.483 341.648 140.667 341.89 140.789C342.131 140.911 342.401 140.966 342.672 140.95C343.036 140.961 343.393 140.845 343.68 140.621C343.988 140.331 344.226 139.975 344.376 139.58C344.577 139.106 344.779 138.485 345.017 137.754C345.225 136.974 345.495 136.211 345.824 135.472C346.062 134.952 346.436 134.505 346.905 134.176C347.398 133.869 347.973 133.717 348.554 133.738C349.211 133.736 349.852 133.941 350.386 134.322C350.938 134.729 351.359 135.287 351.596 135.929C351.862 136.648 351.999 137.408 351.999 138.174Z" fill="#0B0033"/>
<path d="M28.9715 174.854C24.8262 174.917 20.7019 174.256 16.7855 172.9C13.3438 171.696 10.2141 169.744 7.62317 167.186C5.08279 164.59 3.13835 161.475 1.92418 158.057C0.575231 154.103 -0.0757662 149.945 8.07738e-05 145.77C-0.0649402 141.593 0.643228 137.44 2.0891 133.519C3.39547 130.09 5.41941 126.978 8.02632 124.39C10.6663 121.822 13.8281 119.849 17.2986 118.602C21.2034 117.223 25.3239 116.549 29.4663 116.612C32.7725 116.603 36.0686 116.977 39.2883 117.726C42.3562 118.435 45.2767 119.67 47.9193 121.377C50.5033 123.045 52.707 125.234 54.3879 127.804C55.8086 130.037 56.8027 132.513 57.3199 135.107C57.3981 135.384 57.4094 135.675 57.3531 135.958C57.2967 136.24 57.1742 136.505 56.9956 136.731C56.8169 136.957 56.5872 137.138 56.3251 137.258C56.063 137.379 55.776 137.436 55.4874 137.426H46.325C45.9788 137.418 45.6418 137.313 45.3532 137.122C45.0646 136.932 44.836 136.663 44.6941 136.349C44.268 135.198 43.5994 134.152 42.7334 133.281C41.5581 132.152 40.2017 131.226 38.7203 130.543C37.2056 129.815 35.6048 129.282 33.9558 128.954C32.3937 128.636 30.8041 128.471 29.2097 128.461C23.7123 128.461 19.4976 129.958 16.7306 132.989C13.7771 136.573 12.303 141.142 12.6075 145.77C12.3319 150.369 13.8259 154.9 16.7855 158.44C19.5526 161.508 23.7123 163.023 29.2097 163.023C30.8299 163.008 32.4445 162.83 34.0291 162.494C35.7212 162.1 37.354 161.486 38.8852 160.668C40.3805 159.945 41.7631 159.01 42.9899 157.893C43.8801 157.069 44.5857 156.067 45.0606 154.953C45.2025 154.638 45.431 154.37 45.7197 154.179C46.0083 153.989 46.3453 153.884 46.6915 153.876H55.5607C55.8576 153.861 56.1536 153.919 56.4232 154.043C56.6928 154.168 56.928 154.356 57.1083 154.592C57.2887 154.827 57.4088 155.103 57.4585 155.395C57.5081 155.687 57.4857 155.986 57.3932 156.268C56.7907 158.816 55.7424 161.239 54.2963 163.425C52.5492 166.037 50.2858 168.268 47.6444 169.979C44.9621 171.686 42.0055 172.921 38.9035 173.631C35.6549 174.438 32.3197 174.849 28.9715 174.854Z" fill="#0B0033"/>
<path d="M84.2938 174.854C81.1153 174.914 77.9494 174.439 74.9299 173.448C72.2926 172.585 69.8865 171.137 67.8932 169.212C65.918 167.237 64.3984 164.857 63.4403 162.238C62.3495 159.205 61.8217 156.001 61.8827 152.78C61.8827 145.222 63.7946 139.623 67.6183 135.983C71.4482 132.332 76.7807 130.506 83.8724 130.506C90.964 130.506 96.4798 132.332 100.493 136.166C104.506 140 106.503 145.495 106.503 152.835V154.204C106.503 154.689 106.31 155.153 105.967 155.495C105.623 155.838 105.157 156.03 104.671 156.03H75.3514C75.0497 156.029 74.7523 156.101 74.4856 156.242C74.2189 156.382 73.9911 156.586 73.8225 156.836C73.6539 157.085 73.5497 157.372 73.5191 157.671C73.4885 157.97 73.5325 158.272 73.6472 158.55C73.7908 158.936 73.9687 159.309 74.1786 159.663C74.8174 160.689 75.6822 161.557 76.7074 162.201C77.7991 162.888 78.9926 163.4 80.2441 163.717C81.5636 164.084 82.924 164.287 84.2938 164.319C86.612 164.411 88.9201 163.968 91.0373 163.023C92.2023 162.502 93.1711 161.626 93.8044 160.522C93.958 160.241 94.1827 160.006 94.456 159.84C94.7293 159.673 95.0417 159.581 95.362 159.572H103.535C103.836 159.555 104.137 159.612 104.41 159.739C104.684 159.866 104.922 160.058 105.103 160.298C105.284 160.538 105.403 160.819 105.449 161.116C105.496 161.413 105.467 161.717 105.367 162C104.405 165.764 102.099 169.048 98.8803 171.239C94.4707 173.822 89.4044 175.078 84.2938 174.854ZM75.5713 148.38L92.3384 148.581C92.6819 148.597 93.0229 148.516 93.3225 148.348C93.622 148.18 93.8681 147.931 94.0324 147.63C94.1968 147.329 94.2729 146.988 94.252 146.646C94.2311 146.304 94.1141 145.975 93.9143 145.696L93.6394 145.276C92.9646 144.321 92.0892 143.524 91.074 142.939C89.9931 142.304 88.8269 141.824 87.6106 141.515C86.4459 141.198 85.2448 141.032 84.0373 141.022C82.7653 141.025 81.4982 141.178 80.2624 141.479C79.0566 141.759 77.8967 142.207 76.8173 142.812C75.8321 143.37 74.9815 144.137 74.3252 145.057C74.167 145.296 74.0262 145.547 73.9037 145.806C73.781 146.077 73.7266 146.373 73.745 146.67C73.7635 146.966 73.8543 147.254 74.0095 147.507C74.1648 147.761 74.3799 147.973 74.6361 148.125C74.8923 148.277 75.1818 148.365 75.4796 148.38H75.5713Z" fill="#0B0033"/>
<path d="M112.33 116.521H121.309C121.795 116.521 122.262 116.713 122.605 117.056C122.949 117.398 123.142 117.863 123.142 118.347V172.974C123.142 173.458 122.949 173.922 122.605 174.265C122.262 174.607 121.795 174.8 121.309 174.8H112.33C111.844 174.8 111.378 174.607 111.035 174.265C110.691 173.922 110.498 173.458 110.498 172.974V118.402C110.491 118.157 110.532 117.914 110.621 117.686C110.71 117.458 110.844 117.25 111.015 117.075C111.186 116.9 111.39 116.76 111.616 116.665C111.842 116.57 112.085 116.521 112.33 116.521Z" fill="#0B0033"/>
<path d="M128.95 116.521H137.911C138.397 116.521 138.863 116.713 139.207 117.056C139.551 117.398 139.744 117.863 139.744 118.347V172.974C139.744 173.458 139.551 173.922 139.207 174.265C138.863 174.607 138.397 174.8 137.911 174.8H128.95C128.464 174.8 127.998 174.607 127.655 174.265C127.311 173.922 127.118 173.458 127.118 172.974V118.402C127.111 118.157 127.153 117.914 127.241 117.686C127.33 117.458 127.464 117.25 127.635 117.075C127.806 116.9 128.01 116.76 128.236 116.665C128.462 116.57 128.705 116.521 128.95 116.521Z" fill="#0B0033"/>
<path d="M143.739 152.762C143.682 149.584 144.255 146.426 145.425 143.469C146.474 140.875 148.071 138.537 150.107 136.612C152.143 134.687 154.571 133.221 157.226 132.314C160.119 131.315 163.163 130.821 166.224 130.853C168.975 130.86 171.717 131.179 174.396 131.802C177.069 132.403 179.621 133.446 181.946 134.888C184.173 136.273 186.054 138.146 187.444 140.365C188.565 142.179 189.266 144.218 189.496 146.336C189.545 146.601 189.534 146.874 189.464 147.135C189.394 147.396 189.267 147.639 189.092 147.845C188.916 148.051 188.697 148.216 188.45 148.327C188.203 148.439 187.935 148.494 187.664 148.49H178.245C177.892 148.478 177.551 148.364 177.262 148.163C176.973 147.963 176.748 147.683 176.614 147.358C176.344 146.734 175.979 146.155 175.533 145.642C174.827 144.87 173.997 144.222 173.077 143.725C172.12 143.223 171.096 142.86 170.035 142.647C168.952 142.46 167.854 142.38 166.755 142.41C164.984 142.357 163.219 142.636 161.551 143.232C160.277 143.714 159.143 144.504 158.252 145.532C157.444 146.51 156.857 147.649 156.53 148.873C156.173 150.158 155.994 151.484 155.998 152.817C155.992 154.165 156.159 155.509 156.493 156.815C156.78 158.047 157.358 159.193 158.179 160.157C159.064 161.184 160.182 161.985 161.441 162.494C163.087 163.127 164.844 163.425 166.608 163.37C167.705 163.362 168.797 163.246 169.87 163.023C170.947 162.808 171.989 162.445 172.967 161.946C173.909 161.457 174.759 160.808 175.478 160.029C175.947 159.539 176.325 158.97 176.595 158.349C176.737 158.034 176.966 157.766 177.255 157.575C177.543 157.385 177.88 157.28 178.226 157.272H187.7C187.968 157.268 188.233 157.323 188.476 157.433C188.72 157.542 188.937 157.704 189.112 157.905C189.286 158.107 189.415 158.345 189.487 158.601C189.56 158.858 189.576 159.127 189.533 159.39C189.304 161.584 188.57 163.695 187.389 165.561C185.991 167.774 184.112 169.646 181.891 171.038C179.634 172.443 177.156 173.462 174.561 174.051C172.008 174.643 169.395 174.949 166.773 174.964C163.601 175 160.444 174.519 157.428 173.54C154.746 172.674 152.283 171.242 150.208 169.34C148.158 167.408 146.568 165.044 145.553 162.421C144.331 159.347 143.715 156.068 143.739 152.762Z" fill="#0B0033"/>
<path d="M238.533 174.854C236.566 174.858 234.608 174.575 232.724 174.014C230.884 173.511 229.143 172.703 227.574 171.622C226.065 170.546 224.813 169.149 223.909 167.533C222.946 165.79 222.46 163.825 222.498 161.836C222.448 159.86 222.976 157.913 224.019 156.231C225.032 154.683 226.378 153.38 227.959 152.415C229.614 151.393 231.411 150.618 233.292 150.115C235.142 149.607 237.039 149.289 238.954 149.165L255.648 148.234V147.486C255.704 146.257 255.398 145.038 254.768 143.98C254.164 143.078 253.346 142.338 252.386 141.826C251.328 141.246 250.173 140.862 248.978 140.694C247.655 140.502 246.32 140.404 244.983 140.402C242.339 140.237 239.707 140.873 237.433 142.227C236.177 142.999 235.246 144.2 234.813 145.605C234.727 146.024 234.497 146.399 234.162 146.666C233.827 146.933 233.409 147.074 232.98 147.066H225.394C225.128 147.069 224.865 147.014 224.623 146.906C224.38 146.797 224.164 146.638 223.99 146.438C223.816 146.238 223.687 146.003 223.613 145.749C223.539 145.495 223.521 145.228 223.561 144.966C223.635 142.937 224.179 140.953 225.152 139.17C226.125 137.386 227.5 135.852 229.169 134.687C232.962 132.094 238.331 130.816 244.983 130.816C252.459 130.816 258.085 132.35 261.823 135.436C265.562 138.521 267.449 143.396 267.449 150.042V171.805C267.449 172.289 267.256 172.754 266.912 173.096C266.569 173.438 266.103 173.631 265.617 173.631H257.609C257.123 173.631 256.657 173.438 256.313 173.096C255.969 172.754 255.776 172.289 255.776 171.805V158.842C255.815 160.874 255.486 162.896 254.805 164.812C254.241 166.381 253.397 167.834 252.313 169.103C251.337 170.238 250.187 171.212 248.904 171.987C247.704 172.731 246.426 173.343 245.093 173.813C242.969 174.515 240.752 174.897 238.514 174.945L238.533 174.854ZM243.022 166.017C244.25 165.908 245.606 165.743 247.072 165.524C248.497 165.315 249.889 164.922 251.213 164.356C252.442 163.835 253.551 163.071 254.475 162.11C255.38 161.113 255.854 159.801 255.794 158.459V156.359L244.708 156.943L242.069 157.144C240.944 157.234 239.829 157.418 238.734 157.692C237.73 157.926 236.778 158.348 235.93 158.933C235.555 159.195 235.251 159.545 235.046 159.953C234.842 160.362 234.742 160.814 234.758 161.27C234.741 162.122 235.056 162.946 235.637 163.571C236.234 164.212 236.958 164.722 237.763 165.068C238.629 165.427 239.533 165.69 240.457 165.853C241.302 166.01 242.163 166.065 243.022 166.017Z" fill="#0B0033"/>
<path d="M288.138 127.804C286.478 127.759 284.819 127.943 283.209 128.352C282.66 128.473 282.173 128.787 281.836 129.236C281.5 129.685 281.337 130.239 281.376 130.798C281.355 131.077 281.394 131.357 281.492 131.619C281.59 131.88 281.745 132.117 281.945 132.314C282.38 132.676 282.905 132.916 283.465 133.007C284.188 133.163 284.925 133.236 285.664 133.226H295.853C296.339 133.226 296.805 133.419 297.149 133.761C297.492 134.104 297.685 134.568 297.685 135.052V141.789C297.685 142.274 297.492 142.738 297.149 143.08C296.805 143.423 296.339 143.615 295.853 143.615H292.005C291.519 143.615 291.053 143.807 290.709 144.15C290.365 144.492 290.172 144.957 290.172 145.441V172.827C290.172 173.312 289.979 173.776 289.636 174.118C289.292 174.461 288.826 174.653 288.34 174.653H279.837C279.351 174.653 278.885 174.461 278.541 174.118C278.198 173.776 278.005 173.312 278.005 172.827V145.441C278.005 144.957 277.812 144.492 277.468 144.15C277.124 143.807 276.658 143.615 276.172 143.615H272.507C272.021 143.615 271.555 143.423 271.212 143.08C270.868 142.738 270.675 142.274 270.675 141.789V135.107C270.675 134.623 270.868 134.158 271.212 133.816C271.555 133.474 272.021 133.281 272.507 133.281H279.837C277.453 133.402 275.101 132.692 273.185 131.273C272.333 130.531 271.664 129.603 271.232 128.561C270.799 127.519 270.615 126.391 270.693 125.266C270.651 124.072 270.885 122.885 271.377 121.795C271.87 120.706 272.608 119.745 273.533 118.985C275.439 117.391 278.719 116.6 283.374 116.612H295.853C296.339 116.612 296.805 116.804 297.149 117.147C297.492 117.489 297.685 117.954 297.685 118.438V125.978C297.685 126.462 297.492 126.927 297.149 127.269C296.805 127.612 296.339 127.804 295.853 127.804H288.138Z" fill="#0B0033"/>
<path d="M332.062 133.282H331.677C324.934 133.282 322.258 133.282 322.258 126.325V119.059C322.265 118.733 322.208 118.408 322.09 118.104C321.971 117.8 321.794 117.523 321.567 117.287C321.341 117.051 321.07 116.862 320.771 116.731C320.471 116.599 320.148 116.528 319.821 116.521H312.491C312.164 116.528 311.841 116.599 311.541 116.731C311.242 116.862 310.971 117.051 310.745 117.287C310.518 117.523 310.341 117.8 310.222 118.104C310.104 118.408 310.047 118.733 310.054 119.059V126.891C310.019 127.476 310.201 128.052 310.566 128.51C310.932 128.969 311.454 129.276 312.033 129.374C314.763 129.866 317.255 131.239 319.125 133.282H303.42C302.934 133.282 302.468 133.474 302.125 133.816C301.781 134.159 301.588 134.623 301.588 135.107V141.844C301.588 142.329 301.781 142.793 302.125 143.135C302.468 143.478 302.934 143.67 303.42 143.67H308.313C308.799 143.67 309.265 143.863 309.609 144.205C309.952 144.547 310.146 145.012 310.146 145.496V161.198C309.952 164.731 310.966 168.226 313.023 171.112C314.051 172.35 315.359 173.327 316.841 173.962C318.322 174.596 319.934 174.871 321.544 174.763H332.08C332.566 174.763 333.032 174.571 333.376 174.228C333.72 173.886 333.913 173.421 333.913 172.937V164.904C333.913 164.42 333.72 163.955 333.376 163.613C333.032 163.27 332.566 163.078 332.08 163.078H325.941C323.486 163.078 322.277 161.471 322.277 158.24V145.569C322.277 145.085 322.47 144.62 322.813 144.278C323.157 143.936 323.623 143.743 324.109 143.743H332.117C332.603 143.743 333.069 143.551 333.413 143.208C333.756 142.866 333.949 142.402 333.949 141.917V135.107C333.95 134.863 333.9 134.621 333.805 134.396C333.709 134.171 333.569 133.967 333.393 133.797C333.217 133.626 333.009 133.493 332.78 133.405C332.551 133.316 332.307 133.274 332.062 133.282Z" fill="#0B0033"/>
<path d="M218.834 132.186H211.284C210.702 132.177 210.137 132.382 209.697 132.763C209.257 133.144 208.974 133.673 208.902 134.249C208.543 136.654 207.529 138.915 205.97 140.785V135.107C205.97 134.623 205.777 134.158 205.434 133.816C205.09 133.474 204.624 133.281 204.138 133.281H195.47C194.984 133.281 194.518 133.474 194.174 133.816C193.831 134.158 193.638 134.623 193.638 135.107V172.974C193.638 173.458 193.831 173.922 194.174 174.265C194.518 174.607 194.984 174.799 195.47 174.799H204.211C204.697 174.799 205.163 174.607 205.507 174.265C205.85 173.922 206.044 173.458 206.044 172.974V154.278V148.545C206.832 146.263 208.499 144.893 211.999 144.893H218.926C219.56 144.852 220.154 144.572 220.589 144.112C221.024 143.651 221.268 143.043 221.271 142.41V134.724C221.279 134.398 221.221 134.073 221.103 133.769C220.984 133.465 220.807 133.187 220.581 132.952C220.354 132.716 220.083 132.527 219.784 132.396C219.484 132.264 219.162 132.193 218.834 132.186Z" fill="#0B0033"/>
<path d="M187.499 21.9092H156.347C156.059 21.9068 155.773 21.9612 155.507 22.0693C155.24 22.1775 154.997 22.3371 154.793 22.5391C154.588 22.7411 154.426 22.9814 154.315 23.2462C154.205 23.511 154.148 23.795 154.148 24.0819V63.3542C154.148 63.9353 154.379 64.4925 154.792 64.9034C155.204 65.3143 155.763 65.5451 156.347 65.5451H195.818C196.384 65.5214 196.918 65.2796 197.308 64.8708C197.697 64.4619 197.912 63.9181 197.907 63.3542V60.0861C197.912 55.6235 199.012 51.2298 201.11 47.2872C203.208 43.3447 206.242 39.9727 209.946 37.4648C210.496 37.0996 211.046 36.7527 211.614 36.4241C212.45 35.9477 213.396 35.6983 214.359 35.7008C215.321 35.7032 216.266 35.9575 217.099 36.4381C217.932 36.9187 218.624 37.6088 219.105 38.4394C219.587 39.27 219.841 40.212 219.842 41.1711V81.9223C219.842 83.3749 219.263 84.7681 218.232 85.7953C217.201 86.8225 215.802 87.3996 214.344 87.3996H137.637C136.179 87.3996 134.781 86.8225 133.75 85.7953C132.719 84.7681 132.14 83.3749 132.14 81.9223V5.47731C132.14 4.02464 132.719 2.63146 133.75 1.60427C134.781 0.577072 136.179 0 137.637 0L214.399 0C215.857 0 217.256 0.577072 218.287 1.60427C219.318 2.63146 219.897 4.02464 219.897 5.47731V16.4319C219.897 17.8846 219.318 19.2778 218.287 20.305C217.256 21.3322 215.857 21.9092 214.399 21.9092C208.45 21.8946 202.658 23.8181 197.907 27.3865C195.826 28.946 193.975 30.7899 192.41 32.8638C188.827 37.5968 186.896 43.3676 186.912 49.2958V52.5822C186.912 53.1632 186.681 53.7205 186.268 54.1314C185.856 54.5422 185.297 54.7731 184.713 54.7731H167.232C166.648 54.7731 166.089 54.5422 165.677 54.1314C165.264 53.7205 165.033 53.1632 165.033 52.5822V34.9635C165.033 34.3824 165.264 33.8251 165.677 33.4143C166.089 33.0034 166.648 32.7726 167.232 32.7726H170.512C176.461 32.7872 182.253 30.8637 187.004 27.2952C187.717 26.7647 188.402 26.198 189.056 25.5973C189.347 25.2884 189.541 24.9023 189.616 24.4858C189.691 24.0692 189.643 23.64 189.478 23.2499C189.313 22.8598 189.039 22.5256 188.688 22.2877C188.336 22.0498 187.923 21.9184 187.499 21.9092Z" fill="#FF4242"/>
</svg>
