<svg width="471" height="88" viewBox="0 0 471 88" fill="none" xmlns="http://www.w3.org/2000/svg">
<path d="M470.773 87.5582C470.775 87.612 470.767 87.6657 470.747 87.716C470.728 87.7662 470.698 87.8119 470.66 87.85C470.622 87.8881 470.576 87.9178 470.526 87.9372C470.476 87.9566 470.422 87.9652 470.368 87.9626H458.768C458.717 87.9644 458.666 87.9555 458.619 87.9365C458.571 87.9175 458.528 87.8888 458.493 87.8523C458.449 87.8171 458.415 87.7721 458.393 87.7209C458.37 87.6697 458.36 87.6139 458.364 87.5582V86.639C458.362 86.5861 458.372 86.5335 458.395 86.4855C458.417 86.4375 458.451 86.3956 458.493 86.3633C458.528 86.3267 458.571 86.298 458.619 86.279C458.666 86.26 458.717 86.2512 458.768 86.253H469.228V80.4439C469.225 80.3882 469.235 80.3323 469.257 80.2812C469.279 80.23 469.314 80.1849 469.357 80.1498C469.398 80.1104 469.448 80.0802 469.502 80.0611C469.555 80.0421 469.613 80.0347 469.67 80.0395H470.368C470.422 80.0368 470.476 80.0455 470.526 80.0649C470.576 80.0843 470.622 80.114 470.66 80.1521C470.698 80.1902 470.728 80.2358 470.747 80.2861C470.767 80.3363 470.775 80.3901 470.773 80.4439V87.5582Z" fill="#0B0033"/>
<path d="M470.776 79.0483C470.776 79.1422 470.744 79.2332 470.684 79.3057C470.601 79.3384 470.509 79.3384 470.427 79.3057H470.224L458.753 74.9673C458.649 74.9278 458.554 74.8649 458.478 74.7834C458.398 74.678 458.359 74.5476 458.367 74.4158V73.2209C458.362 73.0951 458.401 72.9713 458.478 72.8716C458.553 72.7844 458.648 72.7153 458.753 72.6694L470.224 68.3677C470.291 68.3514 470.36 68.3514 470.427 68.3677C470.474 68.3617 470.522 68.3667 470.567 68.3821C470.612 68.3975 470.653 68.4231 470.687 68.4568C470.721 68.4905 470.746 68.5315 470.762 68.5766C470.777 68.6217 470.782 68.6697 470.776 68.717V69.5994C470.75 69.701 470.692 69.7914 470.611 69.8568L470.408 69.9854L467.89 70.9414V76.6585L470.408 77.6144C470.485 77.6408 470.554 77.6849 470.611 77.7431C470.677 77.8333 470.709 77.9439 470.702 78.0556L470.776 79.0483ZM466.438 76.2725V71.4561L460.151 73.8275L466.438 76.2725Z" fill="#0B0033"/>
<path d="M470.773 66.0511C470.778 66.1052 470.77 66.1597 470.751 66.2105C470.732 66.2614 470.702 66.3074 470.663 66.3452C470.624 66.3832 470.578 66.4126 470.528 66.4316C470.477 66.4506 470.423 66.4588 470.369 66.4555H458.787C458.733 66.4588 458.679 66.4506 458.629 66.4316C458.578 66.4126 458.532 66.3832 458.493 66.3452C458.449 66.3111 458.413 66.2663 458.391 66.2148C458.368 66.1634 458.359 66.107 458.365 66.0511V61.2715C458.337 60.5354 458.488 59.8035 458.806 59.139C459.062 58.6222 459.474 58.1981 459.982 57.9258C460.495 57.6482 461.072 57.5088 461.655 57.5213C462.084 57.5169 462.509 57.5982 462.905 57.7603C463.223 57.8995 463.51 58.0994 463.751 58.3486C463.947 58.551 464.114 58.7799 464.247 59.0287C464.512 58.5413 464.89 58.125 465.35 57.8154C465.894 57.4532 466.536 57.2671 467.189 57.2824C467.829 57.2667 468.463 57.4188 469.027 57.7235C469.578 58.0252 470.03 58.4781 470.332 59.0287C470.668 59.6882 470.832 60.4215 470.81 61.1612L470.773 66.0511ZM463.622 64.7459V61.5472C463.668 60.936 463.477 60.3305 463.089 59.856C462.909 59.6618 462.69 59.5088 462.446 59.4073C462.201 59.3057 461.938 59.2581 461.674 59.2677C461.412 59.2608 461.152 59.3097 460.912 59.4111C460.671 59.5126 460.454 59.6642 460.276 59.856C459.924 60.3462 459.754 60.9449 459.799 61.5472V64.7459H463.622ZM469.339 64.7459V61.3818C469.374 61.0484 469.337 60.7114 469.229 60.394C469.121 60.0766 468.945 59.7864 468.714 59.5435C468.299 59.1531 467.75 58.9359 467.179 58.9359C466.609 58.9359 466.06 59.1531 465.644 59.5435C465.42 59.79 465.249 60.0811 465.145 60.3979C465.04 60.7147 465.004 61.0499 465.038 61.3818V64.7459H469.339Z" fill="#0B0033"/>
<path d="M470.773 50.8846C470.803 51.7533 470.646 52.6184 470.313 53.4215C470.057 54.0523 469.631 54.5996 469.082 55.0024C468.622 55.3592 468.063 55.5647 467.482 55.5907C467.385 55.5893 467.293 55.5496 467.225 55.4804C467.188 55.4446 467.16 55.4016 467.141 55.3541C467.122 55.3067 467.113 55.2557 467.115 55.2046V54.3222C467.108 54.2105 467.14 54.0999 467.207 54.0097C467.277 53.9374 467.366 53.8864 467.464 53.8627C467.775 53.7899 468.065 53.645 468.31 53.4398C468.607 53.1783 468.84 52.851 468.99 52.4839C469.189 51.9751 469.283 51.4309 469.265 50.8846C469.325 50.1114 469.138 49.3393 468.732 48.6786C468.567 48.4496 468.349 48.2644 468.095 48.1395C467.842 48.0145 467.562 47.9534 467.28 47.9617C467.097 47.9549 466.915 47.9856 466.744 48.052C466.573 48.1184 466.418 48.219 466.287 48.3477C465.981 48.6742 465.749 49.063 465.607 49.4875C465.399 50.0022 465.178 50.664 464.945 51.4729C464.75 52.2038 464.479 52.9123 464.137 53.5869C463.885 54.0933 463.505 54.5244 463.034 54.837C462.519 55.1321 461.936 55.2873 461.342 55.2873C460.749 55.2873 460.166 55.1321 459.651 54.837C459.127 54.4641 458.714 53.9558 458.456 53.3663C458.143 52.6419 457.992 51.8575 458.015 51.0684C458.004 50.4431 458.104 49.8209 458.309 49.2301C458.476 48.7309 458.738 48.2689 459.081 47.8698C459.381 47.5413 459.735 47.2675 460.129 47.0609C460.462 46.8754 460.833 46.7685 461.214 46.7484C461.306 46.7543 461.396 46.7862 461.471 46.8403C461.51 46.8745 461.54 46.9172 461.559 46.9651C461.578 47.013 461.586 47.0647 461.581 47.116V48.0536C461.597 48.1325 461.597 48.2137 461.581 48.2926C461.554 48.3417 461.517 48.3849 461.473 48.4196C461.429 48.4543 461.378 48.4799 461.324 48.4948C461.074 48.5374 460.836 48.6312 460.624 48.7704C460.412 48.9096 460.231 49.0912 460.092 49.3036C459.735 49.8478 459.561 50.4919 459.596 51.142C459.568 51.7839 459.721 52.4208 460.037 52.9803C460.184 53.2089 460.389 53.3942 460.632 53.517C460.874 53.6398 461.145 53.6957 461.416 53.6788C461.781 53.6902 462.139 53.5731 462.427 53.3479C462.736 53.0559 462.975 52.6977 463.126 52.3001C463.328 51.8221 463.53 51.1971 463.769 50.4618C463.978 49.6757 464.248 48.9074 464.578 48.1639C464.818 47.6405 465.192 47.1902 465.662 46.8587C466.157 46.5498 466.734 46.3961 467.317 46.4175C467.976 46.4159 468.619 46.6217 469.155 47.0058C469.709 47.4151 470.13 47.9774 470.368 48.6235C470.636 49.3474 470.772 50.1129 470.773 50.8846Z" fill="#0B0033"/>
<path d="M146.715 87.8167C142.557 87.8799 138.419 87.2142 134.49 85.8497C131.038 84.6371 127.898 82.6717 125.299 80.0957C122.75 77.4818 120.8 74.3457 119.582 70.9042C118.228 66.9227 117.575 62.7368 117.651 58.5323C117.586 54.3268 118.297 50.1453 119.747 46.1973C121.058 42.7454 123.088 39.6121 125.703 37.0057C128.352 34.4206 131.524 32.4334 135.005 31.1783C138.922 29.7894 143.056 29.1109 147.212 29.1745C150.528 29.1657 153.835 29.542 157.065 30.2959C160.142 31.0098 163.072 32.2539 165.723 33.9725C168.316 35.6514 170.526 37.8559 172.213 40.4434C173.638 42.6922 174.635 45.1852 175.154 47.7966C175.232 48.0755 175.244 48.3689 175.187 48.653C175.131 48.9372 175.008 49.2039 174.829 49.4315C174.649 49.6591 174.419 49.8411 174.156 49.9627C173.893 50.0843 173.605 50.1421 173.316 50.1313H164.124C163.777 50.1235 163.439 50.0176 163.149 49.8256C162.859 49.6337 162.63 49.3636 162.488 49.0467C162.06 47.8885 161.39 46.8354 160.521 45.9583C159.342 44.8214 157.981 43.8894 156.495 43.2008C154.975 42.4687 153.37 41.9313 151.715 41.6015C150.148 41.2812 148.554 41.1149 146.954 41.1052C141.439 41.1052 137.211 42.6126 134.435 45.6642C131.472 49.2726 129.994 53.8733 130.299 58.5323C130.023 63.1633 131.521 67.7255 134.49 71.2902C137.266 74.3786 141.439 75.9044 146.954 75.9044C148.58 75.889 150.199 75.7103 151.789 75.3713C153.486 74.975 155.124 74.3569 156.66 73.533C158.161 72.8049 159.548 71.8638 160.778 70.7387C161.671 69.9094 162.379 68.9008 162.856 67.7791C162.998 67.4622 163.227 67.1921 163.517 67.0001C163.806 66.8081 164.144 66.7022 164.492 66.6945H173.389C173.687 66.6796 173.984 66.7375 174.254 66.863C174.525 66.9886 174.761 67.178 174.942 67.4151C175.123 67.6521 175.243 67.9296 175.293 68.2236C175.343 68.5176 175.32 68.8193 175.227 69.1026C174.623 71.6685 173.571 74.1078 172.121 76.3088C170.368 78.9393 168.097 81.1849 165.448 82.9084C162.757 84.6268 159.791 85.8705 156.679 86.585C153.42 87.3982 150.074 87.8118 146.715 87.8167Z" fill="#0B0033"/>
<path d="M202.213 87.8176C199.024 87.8783 195.848 87.3997 192.819 86.4021C190.173 85.5335 187.76 84.0752 185.76 82.1373C183.778 80.1488 182.254 77.7524 181.293 75.1149C180.199 72.0618 179.669 68.8351 179.73 65.5924C179.73 57.9818 181.648 52.3443 185.484 48.68C189.326 45.0034 194.676 43.165 201.79 43.165C208.904 43.165 214.438 45.0033 218.464 48.8638C222.489 52.7243 224.493 58.2576 224.493 65.6476V67.0263C224.493 67.5139 224.3 67.9815 223.955 68.3262C223.61 68.671 223.142 68.8646 222.655 68.8646H193.242C192.939 68.8631 192.641 68.9363 192.373 69.0778C192.106 69.2193 191.877 69.4246 191.708 69.6756C191.539 69.9265 191.435 70.2154 191.404 70.5165C191.373 70.8176 191.417 71.1216 191.532 71.4015C191.676 71.7903 191.855 72.1656 192.065 72.5229C192.706 73.556 193.574 74.4298 194.602 75.0781C195.697 75.7699 196.895 76.2848 198.15 76.6039C199.474 76.9741 200.839 77.1779 202.213 77.2106C204.538 77.3036 206.854 76.8568 208.978 75.9054C210.147 75.381 211.118 74.4991 211.754 73.3869C211.908 73.1049 212.133 72.8682 212.407 72.7004C212.682 72.5327 212.995 72.4398 213.316 72.431H221.515C221.817 72.4138 222.119 72.4716 222.393 72.599C222.668 72.7265 222.907 72.9197 223.089 73.1616C223.27 73.4034 223.39 73.6865 223.436 73.9855C223.482 74.2846 223.454 74.5904 223.353 74.8759C222.388 78.6651 220.075 81.9723 216.846 84.1778C212.422 86.7791 207.34 88.0433 202.213 87.8176ZM193.463 61.1621L210.283 61.3643C210.628 61.3802 210.97 61.2989 211.27 61.1296C211.571 60.9602 211.818 60.7098 211.983 60.4068C212.147 60.1038 212.224 59.7606 212.203 59.4163C212.182 59.072 212.064 58.7405 211.864 58.4598L211.588 58.037C210.911 57.0752 210.033 56.2723 209.015 55.6839C207.93 55.0438 206.76 54.561 205.54 54.2501C204.372 53.9303 203.167 53.7635 201.956 53.7537C200.68 53.7567 199.408 53.9109 198.169 54.2133C196.959 54.4951 195.795 54.9469 194.713 55.5553C193.724 56.1176 192.871 56.8893 192.212 57.8164C192.054 58.0572 191.913 58.3091 191.79 58.5701C191.667 58.8428 191.612 59.1414 191.63 59.4399C191.649 59.7385 191.74 60.0281 191.896 60.2835C192.052 60.5389 192.267 60.7524 192.524 60.9055C192.781 61.0586 193.072 61.1467 193.371 61.1621H193.463Z" fill="#0B0033"/>
<path d="M230.341 29.0825H239.349C239.836 29.0825 240.304 29.2762 240.649 29.6209C240.993 29.9657 241.187 30.4333 241.187 30.9208V85.9231C241.187 86.4107 240.993 86.8783 240.649 87.223C240.304 87.5678 239.836 87.7614 239.349 87.7614H230.341C229.854 87.7614 229.386 87.5678 229.041 87.223C228.696 86.8783 228.503 86.4107 228.503 85.9231V30.976C228.495 30.73 228.537 30.485 228.627 30.2555C228.716 30.0261 228.85 29.8169 229.021 29.6403C229.193 29.4637 229.398 29.3233 229.625 29.2275C229.851 29.1317 230.095 29.0824 230.341 29.0825Z" fill="#0B0033"/>
<path d="M247.016 29.0825H256.005C256.493 29.0825 256.96 29.2762 257.305 29.6209C257.65 29.9657 257.844 30.4333 257.844 30.9208V85.9231C257.844 86.4107 257.65 86.8783 257.305 87.223C256.96 87.5678 256.493 87.7614 256.005 87.7614H247.016C246.528 87.7614 246.061 87.5678 245.716 87.223C245.371 86.8783 245.178 86.4107 245.178 85.9231V30.976C245.17 30.73 245.212 30.485 245.301 30.2555C245.39 30.0261 245.525 29.8169 245.696 29.6403C245.868 29.4637 246.073 29.3233 246.299 29.2275C246.526 29.1317 246.77 29.0824 247.016 29.0825Z" fill="#0B0033"/>
<path d="M261.85 65.5725C261.793 62.3726 262.367 59.1929 263.541 56.2155C264.593 53.6038 266.195 51.2491 268.238 49.3111C270.281 47.3731 272.716 45.8971 275.38 44.9834C278.281 43.9779 281.335 43.4804 284.406 43.5127C287.166 43.5202 289.917 43.8409 292.605 44.4686C295.285 45.0729 297.845 46.1231 300.178 47.5754C302.413 48.9699 304.299 50.8562 305.693 53.0903C306.818 54.9162 307.521 56.9698 307.752 59.1016C307.801 59.3691 307.79 59.6442 307.72 59.907C307.65 60.1698 307.522 60.4137 307.346 60.6212C307.171 60.8288 306.951 60.9947 306.703 61.107C306.455 61.2193 306.186 61.2753 305.914 61.2708H296.465C296.112 61.2583 295.769 61.1442 295.479 60.942C295.189 60.7399 294.963 60.4583 294.829 60.1311C294.558 59.503 294.192 58.9202 293.744 58.403C293.037 57.6264 292.204 56.974 291.281 56.4728C290.321 55.9674 289.293 55.6022 288.229 55.3882C287.143 55.1991 286.041 55.1191 284.939 55.1492C283.162 55.0956 281.391 55.3762 279.718 55.9765C278.44 56.4619 277.303 57.258 276.409 58.2927C275.598 59.277 275.009 60.4244 274.681 61.6569C274.323 62.9499 274.144 64.2859 274.148 65.6276C274.142 66.9852 274.309 68.338 274.644 69.6535C274.931 70.8938 275.511 72.0472 276.335 73.0176C277.223 74.0516 278.345 74.8583 279.608 75.3707C281.259 76.0081 283.022 76.3081 284.792 76.2531C285.891 76.2451 286.987 76.1281 288.064 75.9038C289.144 75.6868 290.19 75.3218 291.171 74.8192C292.116 74.3266 292.968 73.6735 293.689 72.8889C294.16 72.3958 294.54 71.8232 294.81 71.1977C294.953 70.8808 295.182 70.6107 295.472 70.4187C295.761 70.2268 296.099 70.1208 296.447 70.1131H305.951C306.219 70.1096 306.485 70.1649 306.729 70.2751C306.974 70.3853 307.192 70.5477 307.367 70.7509C307.542 70.9542 307.67 71.1933 307.743 71.4515C307.816 71.7097 307.832 71.9807 307.789 72.2455C307.559 74.4545 306.823 76.5807 305.638 78.459C304.236 80.6872 302.351 82.5719 300.123 83.974C297.859 85.3887 295.373 86.414 292.77 87.0072C290.208 87.6034 287.588 87.9117 284.957 87.9263C281.775 87.9633 278.608 87.4789 275.582 86.4925C272.891 85.6212 270.42 84.1789 268.339 82.2643C266.283 80.319 264.687 77.9385 263.669 75.2971C262.443 72.2027 261.825 68.9009 261.85 65.5725Z" fill="#0B0033"/>
<path d="M356.945 87.8181C354.972 87.8221 353.008 87.5372 351.118 86.9725C349.272 86.4664 347.526 85.6522 345.952 84.5643C344.437 83.4801 343.182 82.0738 342.275 80.4465C341.309 78.6916 340.821 76.7138 340.86 74.7109C340.809 72.7214 341.339 70.7603 342.386 69.0673C343.401 67.5089 344.751 66.1964 346.338 65.2253C347.998 64.1956 349.801 63.4152 351.687 62.909C353.543 62.3975 355.447 62.0772 357.368 61.9531L374.115 61.0155V60.2618C374.171 59.0245 373.864 57.7978 373.232 56.7323C372.626 55.824 371.805 55.0791 370.843 54.563C369.781 53.9792 368.623 53.593 367.423 53.4233C366.096 53.2299 364.757 53.1316 363.416 53.1292C360.764 52.9633 358.123 53.6042 355.842 54.9675C354.582 55.7448 353.648 56.9535 353.213 58.3684C353.127 58.7898 352.896 59.1678 352.56 59.4365C352.224 59.7053 351.805 59.8477 351.375 59.839H343.764C343.498 59.842 343.234 59.7871 342.991 59.678C342.748 59.5688 342.531 59.4082 342.356 59.2071C342.181 59.006 342.052 58.7693 341.978 58.5133C341.904 58.2574 341.886 57.9884 341.926 57.7249C342 55.6823 342.546 53.6846 343.522 51.8888C344.498 50.093 345.877 48.548 347.551 47.3752C351.357 44.7648 356.743 43.478 363.416 43.478C370.916 43.478 376.56 45.0222 380.31 48.129C384.06 51.2357 385.954 56.144 385.954 62.8355V84.7481C385.954 85.2357 385.76 85.7033 385.415 86.048C385.07 86.3928 384.603 86.5864 384.115 86.5864H376.082C375.594 86.5864 375.127 86.3928 374.782 86.048C374.437 85.7033 374.244 85.2357 374.244 84.7481V71.6961C374.283 73.7422 373.953 75.7785 373.269 77.7074C372.703 79.2865 371.856 80.7501 370.769 82.0274C369.79 83.1706 368.636 84.1509 367.35 84.932C366.145 85.6805 364.863 86.2969 363.526 86.7703C361.395 87.4773 359.171 87.8615 356.927 87.91L356.945 87.8181ZM361.449 78.9207C362.681 78.8104 364.041 78.6449 365.512 78.4243C366.941 78.2135 368.338 77.818 369.666 77.2478C370.898 76.723 372.012 75.9538 372.938 74.9867C373.846 73.9828 374.321 72.662 374.262 71.3101V69.196L363.14 69.7843L360.493 69.9865C359.364 70.0776 358.245 70.2621 357.147 70.538C356.139 70.7742 355.185 71.1983 354.335 71.788C353.958 72.0512 353.653 72.4043 353.448 72.8152C353.242 73.2261 353.143 73.6819 353.158 74.1411C353.141 74.9983 353.457 75.8287 354.04 76.4573C354.639 77.1027 355.365 77.6161 356.173 77.9648C357.042 78.3263 357.948 78.5914 358.875 78.7552C359.723 78.9134 360.587 78.969 361.449 78.9207Z" fill="#0B0033"/>
<path d="M406.709 40.4433C405.043 40.3982 403.379 40.5838 401.764 40.9948C401.213 41.1168 400.724 41.4327 400.387 41.8849C400.049 42.337 399.885 42.8954 399.925 43.4581C399.903 43.7386 399.943 44.0205 400.041 44.2841C400.14 44.5477 400.295 44.7865 400.495 44.9839C400.932 45.3492 401.459 45.5904 402.021 45.6825C402.746 45.8389 403.486 45.9129 404.227 45.9031H414.448C414.935 45.9031 415.403 46.0968 415.748 46.4415C416.092 46.7863 416.286 47.2539 416.286 47.7414V54.5248C416.286 55.0123 416.092 55.4799 415.748 55.8247C415.403 56.1694 414.935 56.3631 414.448 56.3631H410.587C410.1 56.3631 409.632 56.5568 409.288 56.9015C408.943 57.2463 408.749 57.7139 408.749 58.2014V85.7761C408.749 86.2636 408.555 86.7312 408.211 87.076C407.866 87.4207 407.398 87.6144 406.911 87.6144H398.381C397.893 87.6144 397.426 87.4207 397.081 87.076C396.736 86.7312 396.543 86.2636 396.543 85.7761V58.2014C396.543 57.7139 396.349 57.2463 396.004 56.9015C395.66 56.5568 395.192 56.3631 394.704 56.3631H391.028C390.54 56.3631 390.073 56.1694 389.728 55.8247C389.383 55.4799 389.189 55.0123 389.189 54.5248V47.7966C389.189 47.309 389.383 46.8414 389.728 46.4967C390.073 46.1519 390.54 45.9582 391.028 45.9582H398.381C395.989 46.0794 393.63 45.3645 391.708 43.9361C390.853 43.1894 390.182 42.2549 389.748 41.2056C389.314 40.1563 389.129 39.0208 389.208 37.8881C389.165 36.6859 389.4 35.4902 389.894 34.3935C390.388 33.2968 391.129 32.3287 392.057 31.5643C393.969 29.9588 397.26 29.1622 401.929 29.1745H414.448C414.935 29.1745 415.403 29.3681 415.748 29.7129C416.092 30.0576 416.286 30.5252 416.286 31.0128V38.605C416.286 39.0925 416.092 39.5601 415.748 39.9049C415.403 40.2496 414.935 40.4433 414.448 40.4433H406.709Z" fill="#0B0033"/>
<path d="M450.773 45.9582H450.387C443.622 45.9582 440.938 45.9582 440.938 38.9543V31.6378C440.946 31.3094 440.888 30.9829 440.769 30.6767C440.65 30.3706 440.472 30.0909 440.245 29.8536C440.018 29.6163 439.747 29.4261 439.446 29.2938C439.145 29.1615 438.822 29.0897 438.493 29.0825H431.14C430.812 29.0897 430.488 29.1615 430.187 29.2938C429.887 29.4261 429.615 29.6163 429.388 29.8536C429.161 30.0909 428.983 30.3706 428.864 30.6767C428.745 30.9829 428.688 31.3094 428.695 31.6378V39.5241C428.66 40.1123 428.843 40.6929 429.209 41.1543C429.576 41.6158 430.1 41.9256 430.681 42.0242C433.419 42.5195 435.919 43.9019 437.795 45.9582H422.04C421.553 45.9582 421.085 46.1519 420.741 46.4967C420.396 46.8414 420.202 47.309 420.202 47.7965V54.5799C420.202 55.0675 420.396 55.535 420.741 55.8798C421.085 56.2245 421.553 56.4182 422.04 56.4182H426.949C427.436 56.4182 427.904 56.6119 428.249 56.9567C428.593 57.3014 428.787 57.769 428.787 58.2565V74.066C428.593 77.624 429.61 81.1428 431.673 84.0481C432.704 85.2948 434.017 86.2784 435.504 86.9176C436.99 87.5569 438.607 87.8335 440.221 87.7247H450.792C451.279 87.7247 451.747 87.531 452.092 87.1862C452.436 86.8415 452.63 86.3739 452.63 85.8864V77.7978C452.63 77.3102 452.436 76.8427 452.092 76.4979C451.747 76.1532 451.279 75.9595 450.792 75.9595H444.633C442.17 75.9595 440.957 74.3418 440.957 71.0879V58.3301C440.957 57.8425 441.15 57.3749 441.495 57.0302C441.84 56.6854 442.307 56.4918 442.795 56.4918H450.828C451.316 56.4918 451.784 56.2981 452.128 55.9533C452.473 55.6086 452.667 55.141 452.667 54.6534V47.7965C452.667 47.5504 452.618 47.3068 452.522 47.0801C452.426 46.8534 452.286 46.6482 452.109 46.4768C451.932 46.3053 451.723 46.1711 451.494 46.082C451.264 45.9929 451.019 45.9508 450.773 45.9582Z" fill="#0B0033"/>
<path d="M337.183 44.8562H329.609C329.025 44.8472 328.458 45.0542 328.017 45.4376C327.576 45.821 327.292 46.3537 327.219 46.9335C326.859 49.355 325.842 51.6313 324.278 53.5147V47.7975C324.278 47.31 324.084 46.8424 323.74 46.4977C323.395 46.1529 322.927 45.9592 322.44 45.9592H313.745C313.257 45.9592 312.789 46.1529 312.445 46.4977C312.1 46.8424 311.906 47.31 311.906 47.7975V85.9241C311.906 86.4117 312.1 86.8793 312.445 87.224C312.789 87.5688 313.257 87.7624 313.745 87.7624H322.513C323.001 87.7624 323.468 87.5688 323.813 87.224C324.158 86.8793 324.352 86.4117 324.352 85.9241V67.0998V61.3275C325.142 59.0296 326.815 57.6509 330.326 57.6509H337.275C337.911 57.609 338.507 57.3278 338.944 56.8639C339.38 56.4 339.625 55.7879 339.628 55.1508V47.4115C339.635 47.0832 339.578 46.7566 339.459 46.4505C339.34 46.1443 339.162 45.8646 338.935 45.6273C338.708 45.39 338.436 45.1998 338.136 45.0675C337.835 44.9352 337.511 44.8634 337.183 44.8562Z" fill="#0B0033"/>
<path d="M55.5354 22.0597H24.2841C23.9953 22.0573 23.7088 22.1121 23.4413 22.221C23.1738 22.3298 22.9304 22.4906 22.7253 22.6939C22.5203 22.8973 22.3575 23.1393 22.2464 23.4059C22.1353 23.6725 22.0781 23.9585 22.0781 24.2473V63.7894C22.0781 64.3745 22.3105 64.9356 22.7242 65.3493C23.1379 65.763 23.699 65.9954 24.2841 65.9954H63.8814C64.4487 65.9716 64.9845 65.7281 65.3755 65.3164C65.7666 64.9048 65.9823 64.3572 65.977 63.7894V60.4989C65.9821 56.0056 67.0852 51.5818 69.1901 47.6121C71.2951 43.6425 74.3382 40.2473 78.0547 37.7222C78.6062 37.3545 79.1577 37.0052 79.7276 36.6743C80.5658 36.1947 81.5151 35.9436 82.4808 35.946C83.4465 35.9485 84.3946 36.2045 85.2303 36.6884C86.066 37.1724 86.7599 37.8672 87.2428 38.7035C87.7256 39.5398 87.9804 40.4883 87.9816 41.4539V82.4851C87.9816 83.9477 87.4006 85.3505 86.3663 86.3847C85.3321 87.419 83.9293 88 82.4667 88H5.51494C4.05228 88 2.64953 87.419 1.61528 86.3847C0.581032 85.3505 0 83.9477 0 82.4851V5.51494C0 4.05228 0.581032 2.64954 1.61528 1.61529C2.64953 0.581036 4.05228 0 5.51494 0L82.5218 0C83.9845 0 85.3872 0.581036 86.4215 1.61529C87.4557 2.64954 88.0368 4.05228 88.0368 5.51494V16.5448C88.0368 18.0075 87.4557 19.4102 86.4215 20.4445C85.3872 21.4787 83.9845 22.0597 82.5218 22.0597C76.5531 22.045 70.7432 23.9817 65.977 27.5747C63.8888 29.1448 62.0323 31.0014 60.4621 33.0896C56.8679 37.8551 54.9311 43.6655 54.9472 49.6344V52.9434C54.9472 53.5284 54.7147 54.0896 54.301 54.5033C53.8873 54.917 53.3262 55.1494 52.7412 55.1494H35.2037C34.6186 55.1494 34.0575 54.917 33.6438 54.5033C33.2301 54.0896 32.9977 53.5284 32.9977 52.9434V35.2037C32.9977 34.6186 33.2301 34.0575 33.6438 33.6438C34.0575 33.2301 34.6186 32.9977 35.2037 32.9977H38.4943C44.463 33.0124 50.2729 31.0758 55.0391 27.4828C55.7542 26.9486 56.4414 26.3779 57.098 25.7731C57.3892 25.4621 57.5842 25.0734 57.6593 24.654C57.7344 24.2346 57.6864 23.8024 57.5212 23.4096C57.3559 23.0169 57.0804 22.6804 56.728 22.4408C56.3756 22.2013 55.9614 22.0689 55.5354 22.0597Z" fill="#FF4242"/>
</svg>
