<svg width="116" height="115" viewBox="0 0 116 115" fill="none" xmlns="http://www.w3.org/2000/svg">
<path d="M73.1752 28.8281H31.9975C31.6169 28.8249 31.2395 28.8965 30.887 29.0388C30.5345 29.181 30.2138 29.3911 29.9436 29.6569C29.6734 29.9226 29.4589 30.2389 29.3125 30.5873C29.1662 30.9357 29.0908 31.3094 29.0908 31.6869V83.3612C29.0908 84.1258 29.3971 84.859 29.9422 85.3996C30.4873 85.9403 31.2266 86.244 31.9975 86.244H84.1721C84.9196 86.2129 85.6255 85.8947 86.1408 85.3567C86.6561 84.8188 86.9403 84.1032 86.9334 83.3612V79.061C86.9401 73.1892 88.3935 67.408 91.1671 62.2204C93.9406 57.0328 97.9504 52.596 102.847 49.296C103.574 48.8155 104.301 48.3591 105.052 47.9267C106.156 47.2999 107.407 46.9717 108.679 46.9749C109.952 46.9782 111.201 47.3127 112.302 47.9451C113.403 48.5775 114.318 49.4856 114.954 50.5785C115.59 51.6714 115.926 52.9108 115.927 54.1728V107.793C115.927 109.704 115.162 111.538 113.799 112.889C112.436 114.241 110.588 115 108.661 115H7.26665C5.33942 115 3.49111 114.241 2.12835 112.889C0.765586 111.538 0 109.704 0 107.793V7.20702C0 5.2956 0.765586 3.46247 2.12835 2.11089C3.49111 0.759309 5.33942 0 7.26665 0L108.733 0C110.661 0 112.509 0.759309 113.872 2.11089C115.234 3.46247 116 5.2956 116 7.20702V21.6211C116 23.5325 115.234 25.3656 113.872 26.7172C112.509 28.0688 110.661 28.8281 108.733 28.8281C100.869 28.8089 93.2134 31.3397 86.9334 36.0351C84.1819 38.087 81.7356 40.5132 79.6667 43.2421C74.9309 49.4698 72.3789 57.0629 72.4001 64.8632V69.1874C72.4001 69.9519 72.0938 70.6852 71.5487 71.2258C71.0036 71.7665 70.2643 72.0702 69.4934 72.0702H46.3855C45.6146 72.0702 44.8752 71.7665 44.3301 71.2258C43.785 70.6852 43.4788 69.9519 43.4788 69.1874V46.0048C43.4788 45.2402 43.785 44.507 44.3301 43.9664C44.8752 43.4257 45.6146 43.122 46.3855 43.122H50.7212C58.5858 43.1412 66.2412 40.6104 72.5212 35.915C73.4635 35.2169 74.369 34.4712 75.2341 33.6808C75.6179 33.2744 75.8748 32.7664 75.9737 32.2183C76.0727 31.6702 76.0094 31.1054 75.7917 30.5921C75.5739 30.0789 75.2109 29.6391 74.7466 29.3261C74.2823 29.0131 73.7365 28.8401 73.1752 28.8281Z" fill="#FF4242"/>
</svg>
